<svg id="visual" viewBox="0 0 900 100" width="900" height="100" xmlns="http://www.w3.org/2000/svg" xmlns:xlink="http://www.w3.org/1999/xlink" version="1.1"><path d="M0 61L9.3 59.8C18.7 58.7 37.3 56.3 56.2 53.5C75 50.7 94 47.3 112.8 50.7C131.7 54 150.3 64 169 69C187.7 74 206.3 74 225 69.7C243.7 65.3 262.3 56.7 281.2 56.7C300 56.7 319 65.3 337.8 70.7C356.7 76 375.3 78 394 75.5C412.7 73 431.3 66 450 61.7C468.7 57.3 487.3 55.7 506.2 52C525 48.3 544 42.7 562.8 40.7C581.7 38.7 600.3 40.3 619 43.7C637.7 47 656.3 52 675 58.3C693.7 64.7 712.3 72.3 731.2 70.8C750 69.3 769 58.7 787.8 52.8C806.7 47 825.3 46 844 46.2C862.7 46.3 881.3 47.7 890.7 48.3L900 49L900 101L890.7 101C881.3 101 862.7 101 844 101C825.3 101 806.7 101 787.8 101C769 101 750 101 731.2 101C712.3 101 693.7 101 675 101C656.3 101 637.7 101 619 101C600.3 101 581.7 101 562.8 101C544 101 525 101 506.2 101C487.3 101 468.7 101 450 101C431.3 101 412.7 101 394 101C375.3 101 356.7 101 337.8 101C319 101 300 101 281.2 101C262.3 101 243.7 101 225 101C206.3 101 187.7 101 169 101C150.3 101 131.7 101 112.8 101C94 101 75 101 56.2 101C37.3 101 18.7 101 9.3 101L0 101Z" fill="#6d23ce"></path><path d="M0 72L9.3 72.2C18.7 72.3 37.3 72.7 56.2 72.5C75 72.3 94 71.7 112.8 70.2C131.7 68.7 150.3 66.3 169 63.3C187.7 60.3 206.3 56.7 225 54.3C243.7 52 262.3 51 281.2 49.3C300 47.7 319 45.3 337.8 50.3C356.7 55.3 375.3 67.7 394 74.7C412.7 81.7 431.3 83.3 450 83.2C468.7 83 487.3 81 506.2 74.8C525 68.7 544 58.3 562.8 55.5C581.7 52.7 600.3 57.3 619 61.5C637.7 65.7 656.3 69.3 675 71.5C693.7 73.7 712.3 74.3 731.2 71.7C750 69 769 63 787.8 63.5C806.7 64 825.3 71 844 69.5C862.7 68 881.3 58 890.7 53L900 48L900 101L890.7 101C881.3 101 862.7 101 844 101C825.3 101 806.7 101 787.8 101C769 101 750 101 731.2 101C712.3 101 693.7 101 675 101C656.3 101 637.7 101 619 101C600.3 101 581.7 101 562.8 101C544 101 525 101 506.2 101C487.3 101 468.7 101 450 101C431.3 101 412.7 101 394 101C375.3 101 356.7 101 337.8 101C319 101 300 101 281.2 101C262.3 101 243.7 101 225 101C206.3 101 187.7 101 169 101C150.3 101 131.7 101 112.8 101C94 101 75 101 56.2 101C37.3 101 18.7 101 9.3 101L0 101Z" fill="#8147d6"></path><path d="M0 68L9.3 71.2C18.7 74.3 37.3 80.7 56.2 83.2C75 85.7 94 84.3 112.8 79.7C131.7 75 150.3 67 169 61.8C187.7 56.7 206.3 54.3 225 54.2C243.7 54 262.3 56 281.2 59C300 62 319 66 337.8 65.3C356.7 64.7 375.3 59.3 394 60.2C412.7 61 431.3 68 450 67.8C468.7 67.7 487.3 60.3 506.2 59.8C525 59.3 544 65.7 562.8 69.2C581.7 72.7 600.3 73.3 619 74.3C637.7 75.3 656.3 76.7 675 75.5C693.7 74.3 712.3 70.7 731.2 67C750 63.3 769 59.7 787.8 61.8C806.7 64 825.3 72 844 76.5C862.7 81 881.3 82 890.7 82.5L900 83L900 101L890.7 101C881.3 101 862.7 101 844 101C825.3 101 806.7 101 787.8 101C769 101 750 101 731.2 101C712.3 101 693.7 101 675 101C656.3 101 637.7 101 619 101C600.3 101 581.7 101 562.8 101C544 101 525 101 506.2 101C487.3 101 468.7 101 450 101C431.3 101 412.7 101 394 101C375.3 101 356.7 101 337.8 101C319 101 300 101 281.2 101C262.3 101 243.7 101 225 101C206.3 101 187.7 101 169 101C150.3 101 131.7 101 112.8 101C94 101 75 101 56.2 101C37.3 101 18.7 101 9.3 101L0 101Z" fill="#9465dd"></path><path d="M0 84L9.3 83C18.7 82 37.3 80 56.2 76.7C75 73.3 94 68.7 112.8 69.3C131.7 70 150.3 76 169 75.7C187.7 75.3 206.3 68.7 225 69.2C243.7 69.7 262.3 77.3 281.2 80.5C300 83.7 319 82.3 337.8 78.3C356.7 74.3 375.3 67.7 394 66.5C412.7 65.3 431.3 69.7 450 69.3C468.7 69 487.3 64 506.2 64.8C525 65.7 544 72.3 562.8 77.2C581.7 82 600.3 85 619 84.5C637.7 84 656.3 80 675 78.8C693.7 77.7 712.3 79.3 731.2 79.3C750 79.3 769 77.7 787.8 75.8C806.7 74 825.3 72 844 70C862.7 68 881.3 66 890.7 65L900 64L900 101L890.7 101C881.3 101 862.7 101 844 101C825.3 101 806.7 101 787.8 101C769 101 750 101 731.2 101C712.3 101 693.7 101 675 101C656.3 101 637.7 101 619 101C600.3 101 581.7 101 562.8 101C544 101 525 101 506.2 101C487.3 101 468.7 101 450 101C431.3 101 412.7 101 394 101C375.3 101 356.7 101 337.8 101C319 101 300 101 281.2 101C262.3 101 243.7 101 225 101C206.3 101 187.7 101 169 101C150.3 101 131.7 101 112.8 101C94 101 75 101 56.2 101C37.3 101 18.7 101 9.3 101L0 101Z" fill="#a781e3"></path><path d="M0 76L9.3 75.7C18.7 75.3 37.3 74.7 56.2 75.7C75 76.7 94 79.3 112.8 82.2C131.7 85 150.3 88 169 86.7C187.7 85.3 206.3 79.7 225 77.7C243.7 75.7 262.3 77.3 281.2 76.5C300 75.7 319 72.3 337.8 72.5C356.7 72.7 375.3 76.3 394 76.3C412.7 76.3 431.3 72.7 450 73.3C468.7 74 487.3 79 506.2 82.7C525 86.3 544 88.7 562.8 86.8C581.7 85 600.3 79 619 76.7C637.7 74.3 656.3 75.7 675 75.7C693.7 75.7 712.3 74.3 731.2 76.3C750 78.3 769 83.7 787.8 85.7C806.7 87.7 825.3 86.3 844 85.5C862.7 84.7 881.3 84.3 890.7 84.2L900 84L900 101L890.7 101C881.3 101 862.7 101 844 101C825.3 101 806.7 101 787.8 101C769 101 750 101 731.2 101C712.3 101 693.7 101 675 101C656.3 101 637.7 101 619 101C600.3 101 581.7 101 562.8 101C544 101 525 101 506.2 101C487.3 101 468.7 101 450 101C431.3 101 412.7 101 394 101C375.3 101 356.7 101 337.8 101C319 101 300 101 281.2 101C262.3 101 243.7 101 225 101C206.3 101 187.7 101 169 101C150.3 101 131.7 101 112.8 101C94 101 75 101 56.2 101C37.3 101 18.7 101 9.3 101L0 101Z" fill="#b99de8"></path><path d="M0 91L9.3 90.3C18.7 89.7 37.3 88.3 56.2 86C75 83.7 94 80.3 112.8 81C131.7 81.7 150.3 86.3 169 87.5C187.7 88.7 206.3 86.3 225 85.8C243.7 85.3 262.3 86.7 281.2 87.7C300 88.7 319 89.3 337.8 89.2C356.7 89 375.3 88 394 86.7C412.7 85.3 431.3 83.7 450 82.3C468.7 81 487.3 80 506.2 82C525 84 544 89 562.8 90.2C581.7 91.3 600.3 88.7 619 86.7C637.7 84.7 656.3 83.3 675 82.3C693.7 81.3 712.3 80.7 731.2 82.3C750 84 769 88 787.8 87.5C806.7 87 825.3 82 844 80.2C862.7 78.3 881.3 79.7 890.7 80.3L900 81L900 101L890.7 101C881.3 101 862.7 101 844 101C825.3 101 806.7 101 787.8 101C769 101 750 101 731.2 101C712.3 101 693.7 101 675 101C656.3 101 637.7 101 619 101C600.3 101 581.7 101 562.8 101C544 101 525 101 506.2 101C487.3 101 468.7 101 450 101C431.3 101 412.7 101 394 101C375.3 101 356.7 101 337.8 101C319 101 300 101 281.2 101C262.3 101 243.7 101 225 101C206.3 101 187.7 101 169 101C150.3 101 131.7 101 112.8 101C94 101 75 101 56.2 101C37.3 101 18.7 101 9.3 101L0 101Z" fill="#ccb8ed"></path><path d="M0 91L9.3 90.7C18.7 90.3 37.3 89.7 56.2 90.5C75 91.3 94 93.7 112.8 94.8C131.7 96 150.3 96 169 94.5C187.7 93 206.3 90 225 88.3C243.7 86.7 262.3 86.3 281.2 88C300 89.7 319 93.3 337.8 94.3C356.7 95.3 375.3 93.7 394 92.7C412.7 91.7 431.3 91.3 450 90.5C468.7 89.7 487.3 88.3 506.2 88.8C525 89.3 544 91.7 562.8 92C581.7 92.3 600.3 90.7 619 90.2C637.7 89.7 656.3 90.3 675 89.5C693.7 88.7 712.3 86.3 731.2 85.2C750 84 769 84 787.8 84.8C806.7 85.7 825.3 87.3 844 88.3C862.7 89.3 881.3 89.7 890.7 89.8L900 90L900 101L890.7 101C881.3 101 862.7 101 844 101C825.3 101 806.7 101 787.8 101C769 101 750 101 731.2 101C712.3 101 693.7 101 675 101C656.3 101 637.7 101 619 101C600.3 101 581.7 101 562.8 101C544 101 525 101 506.2 101C487.3 101 468.7 101 450 101C431.3 101 412.7 101 394 101C375.3 101 356.7 101 337.8 101C319 101 300 101 281.2 101C262.3 101 243.7 101 225 101C206.3 101 187.7 101 169 101C150.3 101 131.7 101 112.8 101C94 101 75 101 56.2 101C37.3 101 18.7 101 9.3 101L0 101Z" fill="#ded4f0"></path></svg>