<svg id="visual" viewBox="0 0 900 100" width="900" height="100" xmlns="http://www.w3.org/2000/svg" xmlns:xlink="http://www.w3.org/1999/xlink" version="1.1"><rect x="0" y="0" width="900" height="100" fill="#DED4F0"></rect><path d="M0 24L11.5 25.3C23 26.7 46 29.3 69 30.5C92 31.7 115 31.3 138.2 31.8C161.3 32.3 184.7 33.7 207.8 37C231 40.3 254 45.7 277 49.3C300 53 323 55 346 50.8C369 46.7 392 36.3 415.2 36.5C438.3 36.7 461.7 47.3 484.8 48.8C508 50.3 531 42.7 554 44.2C577 45.7 600 56.3 623 62.2C646 68 669 69 692.2 65.5C715.3 62 738.7 54 761.8 47.2C785 40.3 808 34.7 831 37.2C854 39.7 877 50.3 888.5 55.7L900 61L900 101L888.5 101C877 101 854 101 831 101C808 101 785 101 761.8 101C738.7 101 715.3 101 692.2 101C669 101 646 101 623 101C600 101 577 101 554 101C531 101 508 101 484.8 101C461.7 101 438.3 101 415.2 101C392 101 369 101 346 101C323 101 300 101 277 101C254 101 231 101 207.8 101C184.7 101 161.3 101 138.2 101C115 101 92 101 69 101C46 101 23 101 11.5 101L0 101Z" fill="#6d23ce" stroke-linecap="round" stroke-linejoin="miter"></path></svg>