<svg id="visual" viewBox="0 0 900 100" width="900" height="100" xmlns="http://www.w3.org/2000/svg" xmlnsXlink="http://www.w3.org/1999/xlink" version="1.1"><path d="M0 16L10.7 16C21.3 16 42.7 16 64.2 21C85.7 26 107.3 36 128.8 37.2C150.3 38.3 171.7 30.7 193 29.2C214.3 27.7 235.7 32.3 257 36.3C278.3 40.3 299.7 43.7 321.2 40.8C342.7 38 364.3 29 385.8 25.7C407.3 22.3 428.7 24.7 450 28.5C471.3 32.3 492.7 37.7 514.2 36.2C535.7 34.7 557.3 26.3 578.8 26.5C600.3 26.7 621.7 35.3 643 38.5C664.3 41.7 685.7 39.3 707 35.2C728.3 31 749.7 25 771.2 23.5C792.7 22 814.3 25 835.8 28C857.3 31 878.7 34 889.3 35.5L900 37L900 101L889.3 101C878.7 101 857.3 101 835.8 101C814.3 101 792.7 101 771.2 101C749.7 101 728.3 101 707 101C685.7 101 664.3 101 643 101C621.7 101 600.3 101 578.8 101C557.3 101 535.7 101 514.2 101C492.7 101 471.3 101 450 101C428.7 101 407.3 101 385.8 101C364.3 101 342.7 101 321.2 101C299.7 101 278.3 101 257 101C235.7 101 214.3 101 193 101C171.7 101 150.3 101 128.8 101C107.3 101 85.7 101 64.2 101C42.7 101 21.3 101 10.7 101L0 101Z" fill="#6d23ce"></path><path d="M0 47L10.7 44.7C21.3 42.3 42.7 37.7 64.2 35.7C85.7 33.7 107.3 34.3 128.8 35.2C150.3 36 171.7 37 193 37.3C214.3 37.7 235.7 37.3 257 39.2C278.3 41 299.7 45 321.2 45.2C342.7 45.3 364.3 41.7 385.8 40.5C407.3 39.3 428.7 40.7 450 40C471.3 39.3 492.7 36.7 514.2 36.7C535.7 36.7 557.3 39.3 578.8 42.8C600.3 46.3 621.7 50.7 643 51C664.3 51.3 685.7 47.7 707 44C728.3 40.3 749.7 36.7 771.2 34.3C792.7 32 814.3 31 835.8 31C857.3 31 878.7 32 889.3 32.5L900 33L900 101L889.3 101C878.7 101 857.3 101 835.8 101C814.3 101 792.7 101 771.2 101C749.7 101 728.3 101 707 101C685.7 101 664.3 101 643 101C621.7 101 600.3 101 578.8 101C557.3 101 535.7 101 514.2 101C492.7 101 471.3 101 450 101C428.7 101 407.3 101 385.8 101C364.3 101 342.7 101 321.2 101C299.7 101 278.3 101 257 101C235.7 101 214.3 101 193 101C171.7 101 150.3 101 128.8 101C107.3 101 85.7 101 64.2 101C42.7 101 21.3 101 10.7 101L0 101Z" fill="#7346d4"></path><path d="M0 48L10.7 48.7C21.3 49.3 42.7 50.7 64.2 52C85.7 53.3 107.3 54.7 128.8 55.3C150.3 56 171.7 56 193 57.3C214.3 58.7 235.7 61.3 257 59.3C278.3 57.3 299.7 50.7 321.2 46.8C342.7 43 364.3 42 385.8 43.2C407.3 44.3 428.7 47.7 450 49.5C471.3 51.3 492.7 51.7 514.2 51C535.7 50.3 557.3 48.7 578.8 47C600.3 45.3 621.7 43.7 643 43.5C664.3 43.3 685.7 44.7 707 47.5C728.3 50.3 749.7 54.7 771.2 54.2C792.7 53.7 814.3 48.3 835.8 47.3C857.3 46.3 878.7 49.7 889.3 51.3L900 53L900 101L889.3 101C878.7 101 857.3 101 835.8 101C814.3 101 792.7 101 771.2 101C749.7 101 728.3 101 707 101C685.7 101 664.3 101 643 101C621.7 101 600.3 101 578.8 101C557.3 101 535.7 101 514.2 101C492.7 101 471.3 101 450 101C428.7 101 407.3 101 385.8 101C364.3 101 342.7 101 321.2 101C299.7 101 278.3 101 257 101C235.7 101 214.3 101 193 101C171.7 101 150.3 101 128.8 101C107.3 101 85.7 101 64.2 101C42.7 101 21.3 101 10.7 101L0 101Z" fill="#7b60d8"></path><path d="M0 63L10.7 64.5C21.3 66 42.7 69 64.2 69.2C85.7 69.3 107.3 66.7 128.8 65.7C150.3 64.7 171.7 65.3 193 63.7C214.3 62 235.7 58 257 56.5C278.3 55 299.7 56 321.2 57.3C342.7 58.7 364.3 60.3 385.8 60C407.3 59.7 428.7 57.3 450 57.8C471.3 58.3 492.7 61.7 514.2 63.7C535.7 65.7 557.3 66.3 578.8 67.7C600.3 69 621.7 71 643 68.7C664.3 66.3 685.7 59.7 707 57.5C728.3 55.3 749.7 57.7 771.2 60.7C792.7 63.7 814.3 67.3 835.8 68.3C857.3 69.3 878.7 67.7 889.3 66.8L900 66L900 101L889.3 101C878.7 101 857.3 101 835.8 101C814.3 101 792.7 101 771.2 101C749.7 101 728.3 101 707 101C685.7 101 664.3 101 643 101C621.7 101 600.3 101 578.8 101C557.3 101 535.7 101 514.2 101C492.7 101 471.3 101 450 101C428.7 101 407.3 101 385.8 101C364.3 101 342.7 101 321.2 101C299.7 101 278.3 101 257 101C235.7 101 214.3 101 193 101C171.7 101 150.3 101 128.8 101C107.3 101 85.7 101 64.2 101C42.7 101 21.3 101 10.7 101L0 101Z" fill="#8677da"></path><path d="M0 71L10.7 72.5C21.3 74 42.7 77 64.2 76.5C85.7 76 107.3 72 128.8 71.2C150.3 70.3 171.7 72.7 193 74C214.3 75.3 235.7 75.7 257 75.2C278.3 74.7 299.7 73.3 321.2 73.7C342.7 74 364.3 76 385.8 75.2C407.3 74.3 428.7 70.7 450 70.2C471.3 69.7 492.7 72.3 514.2 72.2C535.7 72 557.3 69 578.8 69.2C600.3 69.3 621.7 72.7 643 73C664.3 73.3 685.7 70.7 707 70.7C728.3 70.7 749.7 73.3 771.2 73.7C792.7 74 814.3 72 835.8 72.7C857.3 73.3 878.7 76.7 889.3 78.3L900 80L900 101L889.3 101C878.7 101 857.3 101 835.8 101C814.3 101 792.7 101 771.2 101C749.7 101 728.3 101 707 101C685.7 101 664.3 101 643 101C621.7 101 600.3 101 578.8 101C557.3 101 535.7 101 514.2 101C492.7 101 471.3 101 450 101C428.7 101 407.3 101 385.8 101C364.3 101 342.7 101 321.2 101C299.7 101 278.3 101 257 101C235.7 101 214.3 101 193 101C171.7 101 150.3 101 128.8 101C107.3 101 85.7 101 64.2 101C42.7 101 21.3 101 10.7 101L0 101Z" fill="#938dda"></path><path d="M0 81L10.7 82.7C21.3 84.3 42.7 87.7 64.2 88.3C85.7 89 107.3 87 128.8 86.5C150.3 86 171.7 87 193 87.8C214.3 88.7 235.7 89.3 257 89.2C278.3 89 299.7 88 321.2 88.2C342.7 88.3 364.3 89.7 385.8 88.5C407.3 87.3 428.7 83.7 450 82.3C471.3 81 492.7 82 514.2 83.7C535.7 85.3 557.3 87.7 578.8 87.5C600.3 87.3 621.7 84.7 643 83.3C664.3 82 685.7 82 707 82.7C728.3 83.3 749.7 84.7 771.2 84.2C792.7 83.7 814.3 81.3 835.8 80C857.3 78.7 878.7 78.3 889.3 78.2L900 78L900 101L889.3 101C878.7 101 857.3 101 835.8 101C814.3 101 792.7 101 771.2 101C749.7 101 728.3 101 707 101C685.7 101 664.3 101 643 101C621.7 101 600.3 101 578.8 101C557.3 101 535.7 101 514.2 101C492.7 101 471.3 101 450 101C428.7 101 407.3 101 385.8 101C364.3 101 342.7 101 321.2 101C299.7 101 278.3 101 257 101C235.7 101 214.3 101 193 101C171.7 101 150.3 101 128.8 101C107.3 101 85.7 101 64.2 101C42.7 101 21.3 101 10.7 101L0 101Z" fill="#a3a2d8"></path></svg>