
<svg id="visual" viewBox="0 0 900 100" width="900" height="100" xmlns="http://www.w3.org/2000/svg" xmlnsXlink="http://www.w3.org/1999/xlink" version="1.1"><rect x="0" y="0" width="900" height="100" fill="#a3a2d8"></rect><path d="M0 59L12.5 53.2C25 47.3 50 35.7 75 30.3C100 25 125 26 150 31.7C175 37.3 200 47.7 225 51.2C250 54.7 275 51.3 300 51.2C325 51 350 54 375 58.3C400 62.7 425 68.3 450 63.2C475 58 500 42 525 39.3C550 36.7 575 47.3 600 53.5C625 59.7 650 61.3 675 57.5C700 53.7 725 44.3 750 40.7C775 37 800 39 825 43.5C850 48 875 55 887.5 58.5L900 62L900 101L887.5 101C875 101 850 101 825 101C800 101 775 101 750 101C725 101 700 101 675 101C650 101 625 101 600 101C575 101 550 101 525 101C500 101 475 101 450 101C425 101 400 101 375 101C350 101 325 101 300 101C275 101 250 101 225 101C200 101 175 101 150 101C125 101 100 101 75 101C50 101 25 101 12.5 101L0 101Z" fill="#5c588d" strokeLinecap="round" strokeLinejoin="miter"></path></svg>