<svg xmlns="http://www.w3.org/2000/svg" xmlns:xlink="http://www.w3.org/1999/xlink" x="0px" y="0px"
	 width="100%" viewBox="0 0 1667 1667" e="new 0 0 1667 1667" xml:space="preserve">
<path fill="#331D4B" opacity="1.000000" stroke="none" stroke-width="5px" 
	d="
M290.008301,212.000015 
	C657.463684,212.000015 1024.421021,212.000015 1391.689209,212.000015 
	C1391.689209,286.800507 1391.689209,361.377289 1391.689209,435.870514 
	C1380.755005,437.732697 1369.700684,439.176910 1358.847290,441.543518 
	C1321.856079,449.609558 1288.153320,465.599518 1256.192871,485.426971 
	C1206.860718,516.031433 1160.958740,551.347290 1116.006836,587.973145 
	C1098.967285,601.856506 1081.506348,615.229248 1064.077393,628.626343 
	C1047.590210,641.299438 1029.524780,644.989136 1008.689026,640.948730 
	C895.693604,619.037598 795.575867,646.173828 710.458801,723.687500 
	C651.818298,777.089783 617.193115,844.155334 605.893372,922.882812 
	C599.025146,970.734741 603.149719,1017.844421 616.332703,1064.246582 
	C619.105591,1074.006714 620.127441,1083.911987 617.955811,1093.854614 
	C617.053101,1097.988037 615.580688,1102.303467 613.235107,1105.770020 
	C566.046448,1175.512329 518.693054,1245.143066 471.367279,1314.792603 
	C471.004211,1315.327026 470.566742,1315.810791 469.708069,1316.892944 
	C463.321930,1311.171387 456.967316,1305.692871 450.848694,1299.962402 
	C403.751373,1255.850830 364.997131,1205.426514 335.991241,1147.672363 
	C315.282288,1106.438354 300.633148,1063.100952 290.999603,1018.005066 
	C280.836243,970.428650 276.738098,922.309326 276.755951,873.703918 
	C276.781708,803.556519 276.116241,733.409180 276.036224,663.261475 
	C275.902985,546.439636 275.988434,429.617462 276.007660,312.795441 
	C276.012878,281.133057 276.111206,249.470642 276.166107,217.808243 
	C276.169220,216.021652 276.166534,214.235077 276.166534,212.000015 
	C280.924377,212.000015 285.217346,212.000015 290.008301,212.000015 
z"/>
<path fill="#331D4B" opacity="1.000000" stroke="none" stroke-width="5px"
	d="
M1331.000000,1453.834595 
	C1258.505493,1453.889893 1186.510986,1453.985352 1114.516479,1453.988403 
	C1051.525757,1453.991089 988.533997,1454.083618 925.544617,1453.757446 
	C891.077515,1453.578979 856.570251,1453.483276 822.163940,1451.726318 
	C795.442383,1450.361694 768.808533,1446.820312 742.210693,1443.622437 
	C717.614014,1440.664917 693.117065,1436.878174 668.410522,1433.433594 
	C667.228149,1428.202026 668.023499,1424.248169 672.928772,1420.341309 
	C724.129089,1379.562256 775.155945,1338.564087 826.051147,1297.404541 
	C834.296753,1290.736328 843.164978,1291.774292 852.123596,1293.621948 
	C874.970581,1298.334106 897.875061,1302.185547 921.252747,1303.241333 
	C976.642761,1305.742798 1029.801270,1296.170654 1079.727905,1272.151733 
	C1179.413086,1224.194580 1241.357422,1145.674438 1265.611450,1037.767090 
	C1272.658081,1006.416443 1274.971436,974.435364 1271.685425,942.438660 
	C1269.958984,925.629272 1265.667358,909.080811 1262.481323,892.424500 
	C1259.381592,876.218140 1255.870361,859.985962 1260.075684,843.498108 
	C1261.369141,838.427185 1263.172363,833.147400 1266.084961,828.879639 
	C1307.457153,768.256836 1349.059814,707.791382 1390.616455,647.294556 
	C1391.046875,646.668030 1391.606812,646.130554 1392.585693,644.995850 
	C1392.585693,914.932922 1392.585693,1184.113647 1392.585693,1453.834595 
	C1372.062622,1453.834595 1351.781372,1453.834595 1331.000000,1453.834595 
z"/>
<path fill="#EE3A47" opacity="1.000000" stroke="none" stroke-width="5px"
	d="
M1357.837646,606.893677 
	C1334.010010,654.247070 1304.147949,697.317749 1273.369141,739.817993 
	C1197.473999,844.616882 1116.178345,945.007019 1027.793823,1039.547241 
	C998.678711,1070.690308 969.004578,1101.352295 938.663574,1131.299683 
	C863.565674,1205.423584 784.639343,1275.265869 700.863708,1339.482178 
	C657.315735,1372.862915 609.772827,1400.224731 563.294189,1429.195190 
	C544.559387,1440.872803 524.109558,1447.137085 503.262909,1452.916504 
	C500.220764,1453.759888 497.120880,1454.481812 494.195557,1455.635010 
	C491.384979,1456.743042 489.401276,1455.973755 486.891052,1454.485229 
	C482.078186,1451.631226 481.353363,1448.273315 482.651611,1442.966064 
	C487.228546,1424.255493 489.651154,1404.862549 495.839172,1386.734741 
	C507.746094,1351.853394 525.253418,1319.419067 544.073425,1287.761108 
	C571.768616,1241.173828 603.696899,1197.475586 635.624329,1153.778198 
	C642.595703,1144.236938 649.550293,1134.683594 656.587402,1125.033325 
	C662.281067,1128.376587 667.635864,1132.029785 673.406677,1134.823364 
	C702.041077,1148.685181 730.015625,1145.410278 756.143860,1128.988403 
	C773.858826,1117.854492 790.297363,1104.650391 807.046936,1092.027222 
	C848.962158,1060.438110 890.103638,1027.911255 928.363220,991.869019 
	C967.852173,954.668701 1002.128479,913.077698 1031.870361,867.856750 
	C1052.986084,835.751221 1072.867188,802.824951 1092.902832,770.022766 
	C1099.156738,759.783936 1103.095947,748.424011 1105.090576,736.441467 
	C1107.610474,721.303467 1104.357910,707.278748 1097.127563,694.110413 
	C1093.051880,686.687683 1088.205933,679.687927 1083.440796,672.072327 
	C1092.880981,664.280151 1102.607422,656.254761 1112.330688,648.225403 
	C1149.322998,617.677612 1186.359619,587.188049 1225.758667,559.723694 
	C1263.819336,533.192261 1303.603638,509.719818 1346.866943,492.657776 
	C1353.826660,489.913086 1361.648071,489.006317 1369.173584,488.149597 
	C1375.546753,487.424072 1382.068115,487.999969 1388.373535,487.999969 
	C1392.640381,509.504242 1390.394409,530.644714 1381.703857,551.074524 
	C1373.831421,569.580933 1365.898682,588.061584 1357.837646,606.893677 
z"/>
</svg>