
<svg xmlns="http://www.w3.org/2000/svg" xmlns:xlink="http://www.w3.org/1999/xlink" version="1.1" id="Layer_1" x="0px" y="0px" width="100%" viewBox="0 0 3209 959" xml:space="preserve">

<path fill="#331D4B" opacity="1.000000" d=" M687.849731,277.846130   C663.109375,297.343811 638.635254,316.603485 614.220581,335.938110   C606.227783,342.267914 597.498901,347.461853 587.214661,347.610046   C579.511658,347.721069 571.764343,345.799438 564.060303,344.627838   C487.307220,332.955505 420.272949,353.380707 363.802063,406.557953   C326.662689,441.531158 304.159912,484.860016 295.428741,535.134521   C289.435364,569.644531 291.880402,603.806213 301.351990,637.450317   C305.080231,650.693298 303.953186,662.492126 295.791748,674.285950   C264.349091,719.722595 233.478867,765.555420 202.390137,811.237061   C201.829224,812.061218 201.205383,812.842651 199.848312,814.671875   C186.527863,801.114807 172.764954,788.270142 160.331284,774.246826   C112.585243,720.396362 84.329308,657.356750 72.806267,586.479858   C67.867538,556.102356 66.826279,525.555664 66.818100,494.892120   C66.810547,466.569885 66.587051,438.247803 66.533577,409.925476   C66.391357,334.604309 66.226341,259.283051 66.196106,183.961777   C66.178848,140.971191 66.407623,97.980507 66.524910,54.989861   C66.528984,53.496254 66.525429,52.002625 66.525429,50.174149   C323.643738,50.174149 580.549377,50.174149 837.808167,50.174149   C837.808167,101.454559 837.808167,152.860596 837.808167,204.464401   C829.121521,206.109451 820.117859,207.442673 811.300110,209.552597   C782.259277,216.501556 756.377563,230.392319 731.820923,246.876190   C717.038330,256.799194 702.685242,267.362000 687.849731,277.846130  z"/>
<path fill="#341E4C" opacity="1.000000" d=" M451.392181,907.818787   C413.245117,903.707397 375.567291,899.604675 338.181183,895.533691   C337.105347,890.943848 337.299622,888.236450 340.523041,885.662231   C375.533569,857.703491 410.498962,829.686401 445.257721,801.416016   C451.138153,796.633301 457.201935,796.527954 463.973724,797.474182   C481.415894,799.911621 498.818115,803.327637 516.349426,804.288330   C551.444153,806.211487 585.399292,799.685974 617.342712,785.030762   C692.937622,750.348572 737.989807,691.609253 752.701965,609.841919   C758.108582,579.793091 756.417786,549.886230 748.646667,520.264099   C745.731812,509.153015 743.976868,497.671692 746.972778,486.208313   C747.961792,482.424103 749.481201,478.551910 751.670593,475.342407   C779.807129,434.095947 808.107788,392.961395 836.380310,351.807800   C836.892212,351.062561 837.569885,350.431213 838.645508,349.204712   C838.645508,535.898621 838.645508,721.789246 838.645508,907.827393   C709.608276,907.827393 580.734863,907.827393 451.392181,907.818787  z"/>
<path fill="#EE3B48" opacity="1.000000" d=" M616.745728,588.750000   C583.152832,623.927673 550.635681,659.695862 516.230896,693.545288   C461.226074,747.662292 403.678772,799.079224 340.411316,843.495605   C313.614899,862.307861 285.541138,879.460571 257.078918,895.665588   C244.760132,902.679260 230.046783,905.565002 216.300522,909.947510   C212.002533,911.317749 208.509735,906.565979 209.113953,901.578796   C213.304321,866.991943 227.760544,836.238342 244.470810,806.313599   C266.938049,766.079163 294.484009,729.270935 321.534058,692.128784   C324.176819,688.500061 326.839111,684.885498 329.090088,681.813293   C336.729980,685.254639 343.831696,689.495483 351.517212,691.714478   C372.155731,697.673218 390.224976,690.717590 406.684570,678.564209   C422.625977,666.793518 438.378021,654.761414 454.066620,642.654114   C484.559418,619.122070 514.004089,594.380493 540.197021,566.023254   C569.262756,534.555847 593.004822,499.184174 615.205078,462.726837   C621.861389,451.795929 628.476929,440.791565 634.262390,429.390137   C643.400513,411.381409 642.041809,393.717529 630.566956,376.964264   C628.688354,374.221588 626.800720,371.485107 624.786865,368.556091   C625.093567,368.068298 625.315308,367.406738 625.772339,367.032745   C659.276184,339.614349 692.122681,311.357513 727.955566,286.908081   C752.210571,270.358490 777.648865,256.010437 804.692261,244.447006   C814.766052,240.139587 825.144043,241.012207 835.742737,240.250259   C837.200378,252.745544 837.716980,264.700348 833.668213,276.850708   C821.347595,313.824158 802.834473,347.571533 780.907532,379.500000   C730.692566,452.619659 675.856995,522.144226 616.745728,588.750000  z"/>
<rect fill="#331D4B" x="950.85" y="49.9" width="2192.8" height="180.7" rx="0"/>
<path fill="#341E4C" opacity="1.000000" d=" M2124.164307,413.001648   C2124.164307,425.967438 2124.164307,438.433472 2124.164307,451.470947   C2082.713623,451.470947 2041.661743,451.470947 2000.389648,451.470947   C2000.389648,472.147491 2000.389648,492.249847 2000.389648,512.935303   C2041.426758,512.935303 2082.461914,512.935303 2123.829102,512.935303   C2123.829102,531.747681 2123.829102,549.981750 2123.829102,568.524597   C2064.428711,568.524597 2005.027710,568.524597 1945.313721,568.524597   C1945.313721,472.256134 1945.313721,376.007263 1945.313721,279.379944   C2004.618042,279.379944 2064.145508,279.379944 2123.899902,279.379944   C2123.899902,297.618164 2123.899902,315.843384 2123.899902,334.478149   C2082.709473,334.478149 2041.780273,334.478149 2000.509033,334.478149   C2000.509033,355.095764 2000.509033,375.307129 2000.509033,396.085083   C2041.572388,396.085083 2082.618896,396.085083 2124.164307,396.085083   C2124.164307,401.928162 2124.164307,407.215027 2124.164307,413.001648  z"/>
<path fill="#341E4C" opacity="1.000000" d=" M1689.257324,396.723419   C1673.365356,357.434784 1657.626709,318.501617 1641.658691,279.001190   C1656.558350,279.001190 1670.833740,278.952179 1685.108521,279.023743   C1691.386963,279.055206 1699.090698,277.177979 1703.530640,280.118408   C1707.762329,282.920807 1708.657837,290.837433 1710.902222,296.552002   C1733.070557,352.993866 1755.212524,409.446014 1777.370972,465.891693   C1778.005615,467.508606 1778.737915,469.087280 1779.758789,471.460907   C1805.116577,406.926178 1830.198120,343.094757 1855.320312,279.159729   C1875.893799,279.159729 1896.369751,279.159729 1917.319580,279.159729   C1916.867065,280.563812 1916.552734,281.800507 1916.078613,282.972504   C1878.075073,376.928589 1840.046631,470.874573 1802.103638,564.855103   C1800.955444,567.698975 1799.669434,568.982300 1796.397461,568.916260   C1785.402832,568.694336 1774.397339,568.671997 1763.404053,568.927246   C1760.006592,569.006042 1758.475708,567.936157 1757.221313,564.821777   C1734.688354,508.879028 1712.036743,452.984070 1689.257324,396.723419  z"/>
<path fill="#351F4D" opacity="1.000000" d=" M1575.002686,278.998383   C1588.317871,278.998383 1601.133911,278.998383 1614.235107,278.998383   C1614.235107,375.612549 1614.235107,471.969177 1614.235107,568.580872   C1595.910034,568.580872 1577.825684,568.580872 1559.369385,568.580872   C1559.369385,472.279358 1559.369385,375.946014 1559.369385,278.998383   C1564.314697,278.998383 1569.409058,278.998383 1575.002686,278.998383  z"/>
<path fill="#331E4B" opacity="1.000000" d=" M1517.837769,734.000000   C1517.837769,693.859741 1517.837769,654.219543 1517.837769,614.315979   C1519.194458,614.197632 1520.308960,614.014526 1521.423340,614.015747   C1557.084961,614.056396 1592.749023,613.890747 1628.407227,614.268616   C1645.299683,614.447632 1661.837158,617.421448 1677.543335,624.021057   C1704.583252,635.382996 1722.086182,655.196228 1728.496094,683.838806   C1735.813599,716.536438 1730.904785,747.053223 1709.386597,773.764771   C1699.238403,786.362122 1686.293701,795.207458 1671.210693,800.963989   C1669.661377,801.555359 1668.096558,802.105896 1666.545532,802.693115   C1666.412598,802.743469 1666.330811,802.928406 1665.840454,803.497620   C1689.846924,836.558167 1713.935303,869.731445 1738.461792,903.508118   C1736.405151,903.645081 1735.021729,903.816284 1733.638062,903.817566   C1714.306030,903.835144 1694.973389,903.742065 1675.642822,903.911743   C1672.233398,903.941650 1670.311646,902.841614 1668.424316,900.020020   C1648.530762,870.279297 1628.433472,840.674866 1608.554077,810.924805   C1606.640991,808.061890 1604.688599,807.005066 1601.317017,807.085632   C1592.035645,807.307495 1582.745605,807.162292 1573.004639,807.162292   C1573.004639,839.535156 1573.004639,871.444031 1573.004639,903.586975   C1554.475098,903.586975 1536.405396,903.586975 1517.837769,903.586975   C1517.837769,847.063965 1517.837769,790.781982 1517.837769,734.000000  M1572.995850,695.500000   C1572.995850,714.243713 1572.995850,732.987427 1572.995850,751.898315   C1592.345215,751.898315 1611.127563,752.018005 1629.906372,751.810364   C1634.346436,751.761230 1638.876465,751.010071 1643.190796,749.902893   C1667.143188,743.756592 1680.331421,723.030823 1674.998291,700.251404   C1671.090942,683.562012 1655.753052,670.985168 1635.985962,670.113464   C1615.390137,669.205261 1594.733032,669.688965 1574.102539,669.587891   C1573.818726,669.586548 1573.533325,669.894897 1572.995850,670.204163   C1572.995850,678.205994 1572.995850,686.352966 1572.995850,695.500000  z"/>
<path fill="#341E4C" opacity="1.000000" d=" M1817.831421,747.000000   C1817.831543,761.328735 1817.490479,775.167664 1817.905762,788.983948   C1818.664795,814.226990 1828.033447,835.196045 1850.831177,847.913513   C1886.136597,867.608459 1929.391602,847.344177 1938.898438,806.887207   C1940.557861,799.825684 1941.383423,792.406799 1941.410400,785.148621   C1941.613770,730.334351 1941.521362,675.518982 1941.521362,620.703918   C1941.521362,618.709229 1941.521362,616.714600 1941.521362,614.360962   C1959.907227,614.360962 1978.107910,614.360962 1996.553223,614.360962   C1996.553223,712.942871 1996.553223,811.475586 1996.553223,910.478638   C1994.476318,910.478638 1992.675293,910.478577 1990.874268,910.478577   C1953.386841,910.478577 1915.899292,910.478638 1878.411865,910.478577   C1821.477783,910.478455 1779.832520,877.701416 1767.305420,822.029785   C1764.259766,808.494568 1762.534180,794.387817 1762.394287,780.521729   C1761.844116,726.045471 1762.169312,671.560303 1762.169556,617.078491   C1762.169556,616.271484 1762.169556,615.464539 1762.169556,614.330078   C1780.700317,614.330078 1798.937500,614.330078 1817.831421,614.330078   C1817.831421,658.337097 1817.831421,702.418518 1817.831421,747.000000  z"/>
<path fill="#341E4C" opacity="1.000000" d=" M2034.479248,879.533203   C2047.156616,790.966309 2059.727783,702.829529 2072.347412,614.354980   C2090.814209,614.354980 2109.229980,614.354980 2127.871338,614.354980   C2152.872803,675.713440 2177.939453,737.231506 2203.406738,799.732727   C2207.804932,789.043884 2211.879639,779.232117 2215.885010,769.392212   C2236.364990,719.081116 2256.865234,668.778137 2277.211914,618.413025   C2278.625977,614.912781 2280.357666,613.846558 2284.093750,613.899719   C2300.735107,614.136230 2317.381836,614.002380 2334.470947,614.002380   C2348.261719,710.535583 2362.016602,806.818054 2375.827148,903.490967   C2356.183105,903.490967 2336.946289,903.490967 2317.002441,903.490967   C2309.066650,841.236267 2301.105957,778.788879 2293.145508,716.341492   C2292.883789,716.322693 2292.622070,716.303894 2292.360596,716.285034   C2284.947754,734.761108 2277.520508,753.231323 2270.125488,771.714355   C2253.094727,814.281860 2236.039551,856.839722 2219.137451,899.458252   C2217.840820,902.728577 2216.370361,904.120544 2212.714111,903.924194   C2206.399658,903.585083 2200.046143,903.647522 2193.724121,903.906555   C2190.525391,904.037598 2189.128174,902.885803 2187.961182,899.951782   C2169.418213,853.336609 2150.740967,806.774719 2132.106934,760.195618   C2126.677490,746.623413 2121.292480,733.033508 2115.871826,719.457764   C2115.472900,718.458130 2114.951172,717.507385 2113.866699,715.235535   C2105.770996,778.797607 2097.850098,840.989746 2089.888916,903.496887   C2070.386963,903.496887 2050.981445,903.496887 2031.129028,903.496887   C2032.211426,895.644470 2033.292358,887.803955 2034.479248,879.533203  z"/>
<path fill="#331D4B" opacity="1.000000" d=" M1504.160156,435.000061   C1504.160156,479.779602 1504.160156,524.059143 1504.160156,568.827393   C1502.053833,568.827393 1500.432373,568.827393 1498.811035,568.827393   C1488.979370,568.827393 1479.147339,568.878723 1469.316162,568.809753   C1462.515015,568.762085 1454.639160,570.628784 1449.216797,567.824463   C1443.780396,565.012939 1440.737183,557.507080 1436.740234,551.989807   C1393.774536,492.678558 1350.828003,433.353363 1307.872681,374.034607   C1307.109741,372.980927 1306.303101,371.958710 1304.702881,369.848114   C1304.702881,436.757751 1304.702881,502.416565 1304.702881,568.450317   C1285.926636,568.450317 1267.725342,568.450317 1249.262939,568.450317   C1249.262939,472.157288 1249.262939,375.909821 1249.262939,279.252014   C1250.595825,279.173340 1252.025391,279.017303 1253.455078,279.015656   C1268.785767,278.997955 1284.117920,279.116364 1299.446045,278.920441   C1302.967163,278.875458 1305.080444,279.879974 1307.193970,282.808594   C1353.077759,346.391693 1399.085815,409.885040 1445.078979,473.389191   C1446.020508,474.689392 1447.066162,475.914276 1448.772461,478.070648   C1448.772461,411.143951 1448.772461,345.305511 1448.772461,279.236786   C1467.334351,279.236786 1485.427490,279.236786 1504.160156,279.236786   C1504.160156,331.012909 1504.160156,382.756470 1504.160156,435.000061  z"/>
<path fill="#341E4C" opacity="1.000000" d=" M2610.229004,354.569092   C2593.628662,341.425049 2575.245361,332.721191 2554.719727,329.543701   C2535.317383,326.540161 2515.762207,325.880035 2497.119629,333.964020   C2486.147705,338.721741 2479.204590,346.464508 2479.097656,359.273102   C2479.004395,370.479004 2486.184570,377.888306 2495.678467,382.059906   C2511.175781,388.869141 2527.840820,390.927673 2544.279053,393.927979   C2565.366455,397.776855 2586.252686,402.239105 2605.666260,411.940521   C2630.684814,424.443024 2644.758301,443.971588 2647.279053,472.248596   C2649.805420,500.591797 2642.542236,525.193237 2622.070068,545.206665   C2605.720459,561.189758 2585.235107,569.206726 2563.102051,572.838196   C2551.410645,574.756409 2539.409912,576.141968 2527.608887,575.785095   C2492.385498,574.719666 2459.794189,564.943115 2431.454102,543.237061   C2425.175537,538.428040 2419.375244,532.994263 2413.111816,527.640625   C2422.575439,511.124817 2431.685791,495.225098 2440.823730,479.277344   C2446.730713,484.445251 2452.067383,489.894226 2458.154541,494.308197   C2489.085205,516.737976 2523.218506,525.737732 2560.912354,516.739441   C2568.291748,514.977844 2575.778564,511.379822 2581.832520,506.800110   C2597.294678,495.103271 2596.064453,474.710114 2579.926514,463.984070   C2569.749512,457.219818 2558.096436,454.482239 2546.361572,451.949707   C2526.558350,447.675995 2506.585205,443.994720 2487.062500,438.673523   C2470.919434,434.273529 2456.282471,426.221069 2443.996582,414.420013   C2431.305908,402.230438 2425.305664,387.084778 2424.036621,369.842224   C2422.416748,347.834625 2427.988281,327.894592 2441.750000,310.492401   C2449.345703,300.887268 2458.471436,293.039307 2469.384033,287.299988   C2486.071289,278.523773 2503.759521,274.103668 2522.611816,272.784210   C2542.497803,271.392426 2561.796143,273.385925 2580.791504,278.988708   C2600.492920,284.799866 2618.153076,294.494568 2634.083740,307.487640   C2626.748535,322.583344 2619.513428,337.493622 2612.242188,352.386383   C2611.822266,353.246429 2611.110352,353.963837 2610.229004,354.569092  z"/>
<path fill="#341E4C" opacity="1.000000" d=" M2580.772949,829.421143   C2584.642334,814.758118 2579.038330,803.787354 2565.707764,796.862305   C2550.590576,789.008789 2534.165039,786.680847 2517.762207,783.941467   C2496.760010,780.434021 2476.085205,775.603638 2456.980957,765.909546   C2442.413574,758.517395 2429.454590,748.777527 2421.776611,733.909851   C2418.269287,727.118774 2415.602051,719.550781 2414.298584,712.032654   C2411.116211,693.674255 2413.983887,675.834534 2422.447998,659.215698   C2432.437988,639.600952 2448.371826,626.305908 2468.494141,617.798523   C2482.958496,611.683167 2498.000000,608.869995 2513.713379,607.792175   C2538.095215,606.119690 2561.342041,609.727356 2583.858154,618.946533   C2598.091553,624.774292 2611.353271,632.215820 2623.837402,642.664673   C2616.120605,658.372742 2608.326660,674.238403 2600.545166,690.078003   C2577.351807,672.793823 2552.338135,662.471436 2523.321045,662.872192   C2510.630127,663.047485 2498.322266,664.039551 2486.461670,668.955994   C2469.633789,675.931519 2463.407715,694.770569 2473.880859,708.866272   C2479.213135,716.042969 2487.545410,719.026245 2495.852295,720.889465   C2515.182373,725.224854 2534.669434,728.854065 2554.051758,732.964539   C2571.076904,736.575073 2587.609863,741.763733 2602.558350,750.898743   C2624.864258,764.529724 2636.159668,784.500854 2637.168945,810.761230   C2637.682373,824.123535 2636.641846,837.046082 2631.962158,849.560913   C2624.662598,869.082336 2611.434082,883.617310 2593.468262,893.789307   C2575.067871,904.207520 2554.954590,908.471191 2534.008057,910.283997   C2507.259521,912.599060 2481.562988,908.225098 2456.834717,898.727844   C2437.288818,891.221008 2419.938477,879.712952 2405.283936,864.531799   C2404.334229,863.547791 2403.625244,861.072754 2404.189453,860.074646   C2412.824707,844.804688 2421.690186,829.665222 2431.361084,813.016541   C2434.139404,816.338562 2436.222656,819.658203 2439.062012,822.097473   C2471.317627,849.808533 2508.067627,861.160339 2550.239258,851.975403   C2554.374023,851.074829 2558.447510,849.552734 2562.303955,847.783936   C2570.511230,844.019531 2577.248047,838.578491 2580.772949,829.421143  z"/>
<path fill="#331D4B" opacity="1.000000" d=" M1021.995300,435.000000   C1022.124939,449.286285 1021.180786,463.097443 1025.694336,476.570923   C1034.926880,504.131073 1057.979004,521.042664 1085.767700,520.165771   C1113.183716,519.300659 1136.044312,500.591980 1142.815918,472.720123   C1144.721802,464.875275 1145.675171,456.609436 1145.711670,448.530579   C1145.957886,394.034088 1145.840088,339.535950 1145.840088,285.038361   C1145.840088,283.225098 1145.840088,281.411835 1145.840088,279.302399   C1164.169800,279.302399 1182.257446,279.302399 1200.671021,279.302399   C1200.671021,377.761047 1200.671021,476.319611 1200.671021,575.472656   C1198.906738,575.472656 1197.146606,575.472656 1195.386597,575.472656   C1157.721558,575.472656 1120.056519,575.473206 1082.391479,575.472595   C1025.232422,575.471619 982.981506,541.743469 971.219299,485.773102   C968.365173,472.191620 966.866821,458.093170 966.732971,444.213257   C966.223389,391.387177 966.527466,338.553223 966.527466,285.722229   C966.527466,283.726868 966.527344,281.731506 966.527344,279.370697   C984.929138,279.370697 1003.150391,279.370697 1021.995300,279.370697   C1021.995300,330.985352 1021.995300,382.742676 1021.995300,435.000000  z"/>
<path fill="#341E4C" opacity="1.000000" d=" M2913.616211,515.413147   C2920.863281,533.278381 2927.936279,550.799377 2935.215088,568.829895   C2914.761719,568.829895 2894.979736,568.911743 2875.202148,568.649231   C2873.854980,568.631348 2871.958984,566.258972 2871.298584,564.592957   C2856.485596,527.221130 2841.801270,489.798218 2827.112305,452.377380   C2818.008057,429.184906 2808.941650,405.977753 2799.841553,382.783844   C2799.142578,381.002594 2798.307617,379.274841 2797.075439,376.475433   C2792.819092,387.233734 2788.918701,397.038727 2785.058105,406.859406   C2764.393799,459.424744 2743.713379,511.983887 2723.147949,564.587891   C2721.971924,567.595581 2720.758057,568.975769 2717.203857,568.934814   C2698.215332,568.716248 2679.223389,568.831726 2659.578369,568.831726   C2660.184082,566.851929 2660.563721,565.165894 2661.203613,563.585144   C2692.054932,487.355957 2722.928711,411.135925 2753.799316,334.914581   C2760.783936,317.669281 2767.835693,300.450531 2774.678955,283.149261   C2775.860596,280.161926 2777.113037,278.810272 2780.644775,278.891571   C2792.964355,279.175201 2805.294189,279.001312 2817.958984,279.001312   C2849.795410,357.711975 2881.618652,436.390442 2913.616211,515.413147  z"/>
<path fill="#341E4C" opacity="1.000000" d=" M2364.811035,437.791382   C2352.959473,452.406311 2338.117676,462.061615 2320.051270,467.946045   C2344.483887,501.593811 2368.577148,534.774292 2393.116455,568.568848   C2391.020020,568.682922 2389.629150,568.823486 2388.238281,568.824524   C2369.079346,568.839050 2349.918701,568.703186 2330.762939,568.944153   C2326.898682,568.992737 2324.798828,567.655518 2322.749512,564.591492   C2303.235352,535.412292 2283.519531,506.367584 2264.049316,477.159180   C2261.579102,473.453552 2259.004639,471.840973 2254.454102,472.051758   C2245.834961,472.450989 2237.184082,472.167206 2228.028809,472.167206   C2228.028809,504.358032 2228.028809,536.242615 2228.028809,568.479004   C2209.290527,568.479004 2191.068115,568.479004 2172.504395,568.479004   C2172.504395,472.135681 2172.504395,375.795532 2172.504395,279.181763   C2173.585693,279.116333 2174.546387,279.006287 2175.506836,279.007507   C2211.656982,279.053711 2247.814453,278.693024 2283.955078,279.313599   C2307.562988,279.719025 2330.183350,284.911560 2349.989746,298.751923   C2369.953369,312.702179 2380.888428,332.355621 2384.612793,356.031097   C2389.292725,385.781494 2383.866211,413.310577 2364.811035,437.791382  M2270.499512,416.839966   C2279.593994,416.196838 2288.977051,416.764923 2297.728271,414.680603   C2322.688232,408.735901 2335.848633,386.397034 2329.033447,363.270630   C2324.467285,347.776978 2310.042480,336.114563 2291.523926,335.199799   C2270.762207,334.174225 2249.923584,334.701996 2229.118408,334.574677   C2228.821777,334.572845 2228.523682,334.840881 2228.211914,334.989899   C2228.211914,362.182159 2228.211914,389.376160 2228.211914,416.840027   C2242.230225,416.840027 2255.864990,416.840027 2270.499512,416.839966  z"/>
<path fill="#341E4C" opacity="1.000000" d=" M1028.826050,682.013550   C1028.826050,698.495300 1028.826050,714.479126 1028.826050,731.052063   C1063.233643,731.052063 1097.439087,731.052063 1131.898926,731.052063   C1131.898926,749.720520 1131.898926,767.800049 1131.898926,786.342896   C1097.691528,786.342896 1063.619263,786.342896 1029.076538,786.342896   C1029.076538,825.530518 1029.076538,864.261536 1029.076538,903.408386   C1010.414856,903.408386 992.222046,903.408386 973.778076,903.408386   C973.778076,807.028992 973.778076,710.770752 973.778076,614.258911   C1033.283569,614.258911 1092.721313,614.258911 1152.492798,614.258911   C1152.492798,632.464600 1152.492798,650.682312 1152.492798,669.349243   C1111.411865,669.349243 1070.487061,669.349243 1028.826050,669.349243   C1028.826050,673.682007 1028.826050,677.598816 1028.826050,682.013550  z"/>
<path fill="#341E4C" opacity="1.000000" d=" M1189.571777,697.655029   C1215.763672,643.366577 1258.447876,612.829956 1318.186523,607.662903   C1395.171265,601.004150 1466.275635,658.028137 1478.127563,735.009033   C1489.226685,807.102295 1449.021240,876.984924 1380.913818,900.995850   C1323.475586,921.245483 1270.810059,910.829529 1225.421387,870.011108   C1177.929443,827.301453 1163.296143,758.054993 1189.571777,697.655029  M1359.656372,667.804810   C1344.408325,662.587830 1328.863892,661.484985 1312.921021,663.837585   C1260.952026,671.505981 1223.583984,723.710083 1233.365234,775.194275   C1243.818237,830.214661 1293.940796,863.997314 1348.859863,853.037842   C1398.242310,843.183289 1432.666870,792.436279 1423.324097,743.062134   C1416.377441,706.351196 1395.137695,681.502014 1359.656372,667.804810  z"/>
<path fill="#341E4C" opacity="1.000000" d=" M3002.000000,568.829224   C2991.705811,568.829224 2981.911865,568.829224 2971.824707,568.829224   C2971.824707,472.113464 2971.824707,375.870453 2971.824707,279.315186   C2989.963867,279.315186 3008.201172,279.315186 3026.828613,279.315186   C3026.828613,357.019684 3026.828613,434.747284 3026.828613,512.968994   C3065.919434,512.968994 3104.627441,512.968994 3143.665283,512.968994   C3143.665283,531.696228 3143.665283,549.933411 3143.665283,568.829224   C3096.663574,568.829224 3049.581787,568.829224 3002.000000,568.829224  z"/>
<path fill="#FFFFFF" opacity="1.000000" stroke="none" d=" M1076.113770,201.000671   C1073.666016,201.015228 1071.762207,201.511719 1071.771240,198.208054   C1071.871338,161.739594 1071.834229,125.270760 1071.834229,88.484192   C1078.868652,88.484192 1085.609619,88.484192 1092.894531,88.484192   C1092.894531,103.504303 1092.894531,118.550705 1092.894531,133.793121   C1109.360107,133.793121 1125.286377,133.793121 1141.639160,133.793121   C1141.639160,118.790642 1141.639160,103.866669 1141.639160,88.556290   C1148.769897,88.556290 1155.496338,88.556290 1162.614014,88.556290   C1162.614014,125.720123 1162.614014,163.083435 1162.614014,200.724335   C1155.968628,200.724335 1149.224976,200.724335 1142.058838,200.724335   C1142.058838,185.841232 1142.058838,170.930695 1142.058838,155.595490   C1125.621582,155.595490 1109.595581,155.595490 1093.204468,155.595490   C1093.204468,170.464035 1093.204468,185.388977 1093.204468,201.000687   C1087.446777,201.000687 1082.024170,201.000687 1076.113770,201.000671  z"/>
<path fill="#FFFFFF" opacity="1.000000" stroke="none" d=" M1244.950684,88.158936   C1248.396606,88.158936 1251.351685,88.158936 1254.569824,88.158936   C1254.569824,95.403557 1254.569824,102.155243 1254.569824,109.445984   C1238.578857,109.445984 1222.654907,109.445984 1206.457275,109.445984   C1206.457275,117.739891 1206.457275,125.505516 1206.457275,133.831757   C1219.615356,133.831757 1232.834106,133.831757 1246.285522,133.831757   C1246.285522,141.150284 1246.285522,147.911697 1246.285522,155.126404   C1232.993408,155.126404 1219.905151,155.126404 1206.499878,155.126404   C1206.499878,163.460754 1206.499878,171.347321 1206.499878,179.761108   C1222.530640,179.761108 1238.431885,179.761108 1254.582275,179.761108   C1254.582275,187.021072 1254.582275,193.758865 1254.582275,200.751923   C1231.348267,200.751923 1208.288818,200.751923 1185.027588,200.751923   C1185.027588,163.284912 1185.027588,126.029533 1185.027588,88.158928   C1204.923706,88.158928 1224.691772,88.158928 1244.950684,88.158936  z"/>
<path fill="#FFFFFF" opacity="1.000000" stroke="none" d=" M1003.750366,110.148224   C994.151001,109.745499 984.847168,109.745499 975.180176,109.745499   C975.180176,102.360970 975.180176,95.502563 975.180176,88.392075   C1001.718445,88.392075 1028.126953,88.392075 1054.861450,88.392075   C1054.861450,95.255562 1054.861450,102.000702 1054.861450,109.322029   C1045.391235,109.322029 1035.841919,109.322029 1025.710205,109.322029   C1025.710205,140.094315 1025.710205,170.305893 1025.710205,200.763672   C1018.359436,200.763672 1011.595947,200.763672 1004.045837,200.763672   C1004.045837,170.708099 1004.045837,140.629532 1003.750366,110.148224  z"/>

</svg>